<svg xmlns="http://www.w3.org/2000/svg" xmlns:xlink="http://www.w3.org/1999/xlink" width="200" zoomAndPan="magnify" viewBox="0 0 150 64.499998" height="86" preserveAspectRatio="xMidYMid meet" version="1.0"><defs><g/><clipPath id="d90b9a183c"><path d="M 109 0 L 149.421875 0 L 149.421875 5 L 109 5 Z M 109 0 " clip-rule="nonzero"/></clipPath><clipPath id="d395997cbc"><path d="M 144 0 L 149.421875 0 L 149.421875 41 L 144 41 Z M 144 0 " clip-rule="nonzero"/></clipPath><clipPath id="a4604dd171"><path d="M 0.578125 59 L 41 59 L 41 64 L 0.578125 64 Z M 0.578125 59 " clip-rule="nonzero"/></clipPath><clipPath id="f847c78c4b"><path d="M 0.578125 23 L 6 23 L 6 64.003906 L 0.578125 64.003906 Z M 0.578125 23 " clip-rule="nonzero"/></clipPath></defs><g fill="#ffffff" fill-opacity="1"><g transform="translate(17.150123, 44.302064)"><g><path d="M 11.878906 -4.65625 L 4.78125 -4.65625 L 4.78125 -10.285156 L 14.597656 -10.285156 C 14.785156 -10.285156 14.941406 -10.441406 14.941406 -10.566406 L 14.941406 -14.535156 C 14.941406 -14.691406 14.785156 -14.816406 14.597656 -14.816406 L 4.78125 -14.816406 L 4.78125 -20.476562 L 11.878906 -20.476562 L 11.878906 -25.007812 L 0.34375 -25.007812 C 0.15625 -25.007812 0 -24.851562 0 -24.726562 L 0 -0.28125 C 0 -0.15625 0.15625 0 0.34375 0 L 11.878906 0 Z M 11.878906 -4.65625 "/></g></g></g><g fill="#ffffff" fill-opacity="1"><g transform="translate(36.280411, 44.302064)"><g><path d="M 19.632812 -0.375 L 10.128906 -24.820312 C 10.035156 -25.070312 9.597656 -25.070312 9.503906 -24.820312 L 0.03125 -0.375 C -0.0625 -0.1875 0.0625 0 0.34375 0 L 4.625 0 C 4.75 0 4.90625 -0.0625 4.9375 -0.1875 L 9.816406 -14.128906 L 14.753906 -0.1875 C 14.785156 -0.0625 14.941406 0 15.035156 0 L 19.351562 0 C 19.570312 0 19.726562 -0.1875 19.632812 -0.375 Z M 19.632812 -0.375 "/></g></g></g><g fill="#ffffff" fill-opacity="1"><g transform="translate(60.349407, 44.302064)"><g><path d="M 11.472656 -13.878906 C 9.691406 -14.722656 7.941406 -14.722656 7.785156 -14.722656 C 6.191406 -14.722656 4.65625 -15.664062 4.65625 -17.476562 C 4.65625 -19.476562 6.066406 -20.507812 7.785156 -20.507812 C 9.410156 -20.507812 10.785156 -19.664062 10.847656 -17.882812 C 10.847656 -17.789062 11.003906 -17.632812 11.191406 -17.632812 L 15.101562 -17.632812 C 15.320312 -17.632812 15.476562 -17.789062 15.445312 -17.882812 C 15.382812 -22.132812 12.066406 -25.007812 7.785156 -25.007812 C 3.78125 -25.007812 0 -22.164062 0 -17.476562 C 0 -14.566406 1.46875 -12.347656 4.0625 -11.160156 C 5.878906 -10.316406 7.566406 -10.316406 7.785156 -10.316406 C 9.191406 -10.253906 10.910156 -9.128906 10.910156 -7.285156 C 10.910156 -5.628906 9.441406 -4.5 7.785156 -4.5 C 7.785156 -4.5 7.785156 -4.5 7.753906 -4.5 L 7.753906 0 C 7.785156 0 7.785156 0 7.785156 0 C 11.785156 0 15.539062 -2.59375 15.539062 -7.285156 C 15.539062 -10.222656 14.097656 -12.660156 11.472656 -13.878906 Z M 11.472656 -13.878906 "/></g></g></g><g fill="#ffffff" fill-opacity="1"><g transform="translate(80.104849, 44.302064)"><g><path d="M 5.160156 -15.945312 L 5.160156 -0.28125 C 5.160156 -0.15625 5.285156 0 5.503906 0 L 9.535156 0 C 9.753906 0 9.910156 -0.15625 9.910156 -0.28125 L 9.910156 -15.945312 Z M 0.34375 -20.726562 L 14.691406 -20.726562 C 14.910156 -20.726562 15.035156 -20.851562 15.035156 -21.007812 L 15.035156 -24.726562 C 15.035156 -24.851562 14.910156 -25.007812 14.691406 -25.007812 L 0.34375 -25.007812 C 0.15625 -25.007812 0 -24.851562 0 -24.726562 L 0 -21.007812 C 0 -20.851562 0.15625 -20.726562 0.34375 -20.726562 Z M 0.34375 -20.726562 "/></g></g></g><g fill="#ffffff" fill-opacity="1"><g transform="translate(99.32891, 44.302064)"><g><path d="M 10.191406 -4.28125 L 7.691406 -4.28125 L 7.691406 -25.007812 L 2.90625 -25.007812 L 2.90625 -4.28125 L 0.34375 -4.28125 C 0.15625 -4.28125 0 -4.15625 0 -4 L 0 -0.28125 C 0 -0.15625 0.15625 0 0.34375 0 L 10.191406 0 C 10.410156 0 10.535156 -0.15625 10.535156 -0.28125 L 10.535156 -4 C 10.535156 -4.15625 10.410156 -4.28125 10.191406 -4.28125 Z M 10.191406 -4.28125 "/></g></g></g><g fill="#ffffff" fill-opacity="1"><g transform="translate(113.83307, 44.302064)"><g><path d="M 20.695312 -25.007812 L 16.664062 -25.007812 C 16.445312 -25.007812 16.289062 -24.851562 16.289062 -24.726562 L 16.289062 -8.441406 L 4.75 -24.914062 C 4.71875 -24.976562 4.53125 -25.007812 4.46875 -25.007812 L 0.3125 -25.007812 C 0.15625 -25.007812 0 -24.851562 0 -24.726562 L 0 -6.003906 L 4.78125 -6.003906 L 4.78125 -16.570312 L 16.289062 -0.09375 C 16.320312 -0.03125 16.507812 0 16.570312 0 L 20.695312 0 C 20.914062 0 21.039062 -0.15625 21.039062 -0.28125 L 21.039062 -24.726562 C 21.039062 -24.851562 20.914062 -25.007812 20.695312 -25.007812 Z M 20.695312 -25.007812 "/></g></g></g><g clip-path="url(#d90b9a183c)"><path stroke-linecap="butt" transform="matrix(-0.444307, -0.000000000000000054, 0.000000000000000055, -0.446538, 149.415307, 4.925922)" fill="none" stroke-linejoin="miter" d="M 0.00280095 5.004084 L 84.430277 5.004084 " stroke="#ffffff" stroke-width="10" stroke-opacity="1" stroke-miterlimit="4"/></g><g clip-path="url(#d395997cbc)"><path stroke-linecap="butt" transform="matrix(0.000000000000000027, -0.444084, 0.446538, 0.000000000000000027, 144.952204, 38.620926)" fill="none" stroke-linejoin="miter" d="M -0.000377055 4.997083 L 82.463876 4.997083 " stroke="#ffffff" stroke-width="10" stroke-opacity="1" stroke-miterlimit="4"/></g><g clip-path="url(#a4604dd171)"><path stroke-linecap="butt" transform="matrix(0.444307, 0.000000000000000109, -0.000000000000000109, 0.446538, 0.581885, 59.056274)" fill="none" stroke-linejoin="miter" d="M 0.000329015 5.000215 L 84.436597 5.000215 " stroke="#ffffff" stroke-width="10" stroke-opacity="1" stroke-miterlimit="4"/></g><g clip-path="url(#f847c78c4b)"><path stroke-linecap="butt" transform="matrix(-0.000000000000000082, 0.444084, -0.446538, -0.000000000000000082, 5.044551, 25.361264)" fill="none" stroke-linejoin="miter" d="M -0.00425405 4.998564 L 82.459999 4.998564 " stroke="#ffffff" stroke-width="10" stroke-opacity="1" stroke-miterlimit="4"/></g></svg>